<?xml version="1.0" encoding="UTF-8"?>
<svg id="Layer_1" data-name="Layer 1" xmlns="http://www.w3.org/2000/svg" viewBox="0 0 1600 171.77">
  <defs>
    <style>
      .cls-1 {
        fill: #09602c;
      }
    </style>
  </defs>
  <g>
    <path class="cls-1" d="m823.96,54.7h72.61v12.71h-58.09v36.31h53.55v12.71h-53.55v39.94h59.9v12.71h-74.43V54.7Z"/>
    <path class="cls-1" d="m947.4,135.48c0,13.8,8.17,21.78,23.6,21.78s23.6-7.99,23.6-18.15c0-28.14-60.81-13.61-60.81-54.46,0-15.43,15.43-30.86,37.21-30.86,19.79,0,35.4,15.43,35.4,34.49h-14.52c0-12.89-9.08-21.78-20.88-21.78-13.62,0-22.69,8.9-22.69,18.15,0,28.14,60.81,13.61,60.81,54.46,0,16.34-14.34,30.86-38.12,30.86s-38.12-14.52-38.12-34.49h14.52Z"/>
    <path class="cls-1" d="m1048.15,54.7h39.03c19.79,0,36.31,16.34,36.31,35.4s-16.52,35.4-36.31,35.4h-24.51v43.57h-14.52V54.7Zm39.03,58.09c11.8,0,21.78-9.98,21.78-22.69s-9.98-22.69-21.78-22.69h-24.51v45.38h24.51Z"/>
    <path class="cls-1" d="m1262.36,111.88c0,32.68-25.41,58.09-53.55,58.09s-53.55-25.41-53.55-58.09,25.41-58.09,53.55-58.09,53.55,25.42,53.55,58.09Zm-92.58,0c0,26.32,19.06,45.38,39.03,45.38s39.03-19.06,39.03-45.38-19.06-45.38-39.03-45.38-39.03,19.06-39.03,45.38Z"/>
    <path class="cls-1" d="m1301.38,54.7h42.66c19.06,0,34.49,15.43,34.49,33.58,0,13.25-6.35,21.24-12.71,26.14-3.81,2.9-7.99,5.08-12.53,6.53l27.96,48.11h-16.34l-27.23-47.2h-21.78v47.2h-14.52V54.7Zm42.66,54.46c10.71,0,19.97-9.26,19.97-20.88s-9.26-20.88-19.97-20.88h-28.14v41.75h28.14Z"/>
    <path class="cls-1" d="m1441.16,67.4h-34.49v-12.71h83.5v12.71h-34.49v101.66h-14.52v-101.66Z"/>
    <path class="cls-1" d="m1525.57,54.7h72.61v12.71h-58.09v36.31h53.55v12.71h-53.55v39.94h59.91v12.71h-74.43V54.7Z"/>
  </g>
  <g>
    <path class="cls-1" d="m0,19.96C0,8.52,8.74,0,20.17,0s20.41,8.52,20.41,19.96-8.74,20.18-20.41,20.18S0,31.61,0,19.96m3.81,34.75h32.74v114.36H3.81V54.71Z"/>
    <polygon class="cls-1" points="121.5 84.54 94.37 84.54 94.37 139.25 121.5 139.25 121.5 169.07 61.63 169.07 61.63 21.08 94.37 21.08 94.37 54.72 121.5 54.72 121.5 84.54"/>
    <path class="cls-1" d="m221.28,54.71h32.74v114.37h-32.74v-12.56c-9.19,10.09-20.86,15.24-34.53,15.24-15.69,0-28.93-5.61-39.47-17.05-10.54-11.43-15.69-25.78-15.69-42.83s5.16-31.17,15.69-42.61c10.54-11.43,23.78-17.27,39.47-17.27,13.67,0,25.34,5.16,34.53,15.25v-12.56Zm0,57.18c0-16.15-11.88-28.26-28.03-28.26s-27.81,12.11-27.81,28.26,11.89,28.26,27.81,28.26,28.03-12.11,28.03-28.26"/>
    <polygon class="cls-1" points="338.27 84.54 311.14 84.54 311.14 139.25 338.27 139.25 338.27 169.07 278.4 169.07 278.4 21.08 311.14 21.08 311.14 54.72 338.27 54.72 338.27 84.54"/>
    <path class="cls-1" d="m354.41,19.96c0-11.44,8.74-19.96,20.17-19.96s20.41,8.52,20.41,19.96-8.75,20.18-20.41,20.18-20.17-8.53-20.17-20.18m3.81,34.75h32.74v114.36h-32.74V54.71Z"/>
    <path class="cls-1" d="m500.37,54.71h32.74v114.37h-32.74v-12.56c-9.19,10.09-20.86,15.24-34.53,15.24-15.69,0-28.93-5.61-39.47-17.05-10.54-11.43-15.69-25.78-15.69-42.83s5.16-31.17,15.69-42.61c10.54-11.43,23.78-17.27,39.47-17.27,13.67,0,25.34,5.16,34.53,15.25v-12.56Zm0,57.18c0-16.15-11.88-28.26-28.03-28.26s-27.81,12.11-27.81,28.26,11.89,28.26,27.81,28.26,28.03-12.11,28.03-28.26"/>
    <path class="cls-1" d="m555.3,19.96c0-11.44,8.74-19.96,20.17-19.96s20.41,8.52,20.41,19.96-8.75,20.18-20.41,20.18-20.17-8.53-20.17-20.18m3.81,34.75h32.74v114.36h-32.74V54.71Z"/>
    <path class="cls-1" d="m701.26,54.71h32.74v114.37h-32.74v-12.56c-9.19,10.09-20.86,15.24-34.53,15.24-15.69,0-28.93-5.61-39.47-17.05-10.54-11.43-15.69-25.78-15.69-42.83s5.16-31.17,15.69-42.61c10.54-11.43,23.78-17.27,39.47-17.27,13.67,0,25.34,5.16,34.53,15.25v-12.56Zm0,57.18c0-16.15-11.88-28.26-28.03-28.26s-27.81,12.11-27.81,28.26,11.89,28.26,27.81,28.26,28.03-12.11,28.03-28.26"/>
  </g>
  <path class="cls-1" d="m783.38,20.07c0,2.85-.51,5.48-1.53,7.91-1.03,2.43-2.44,4.55-4.24,6.37-1.8,1.83-3.89,3.25-6.27,4.27s-4.96,1.53-7.71,1.53-5.34-.51-7.72-1.53c-2.39-1.02-4.48-2.44-6.27-4.27-1.8-1.81-3.22-3.94-4.24-6.37-1.02-2.43-1.53-5.06-1.53-7.91s.51-5.42,1.53-7.86c1.02-2.45,2.44-4.59,4.24-6.4,1.8-1.82,3.88-3.24,6.27-4.27,2.38-1.02,4.95-1.53,7.72-1.53s5.33.51,7.71,1.53c2.38,1.03,4.48,2.45,6.27,4.27,1.8,1.81,3.21,3.95,4.24,6.4,1.02,2.44,1.53,5.06,1.53,7.86m-34.5,0c0,2.22.38,4.26,1.17,6.12.77,1.86,1.83,3.49,3.17,4.87,1.34,1.38,2.89,2.45,4.67,3.23s3.69,1.17,5.74,1.17,3.96-.39,5.74-1.17c1.77-.77,3.34-1.85,4.67-3.23,1.34-1.38,2.4-3,3.17-4.87.77-1.86,1.16-3.9,1.16-6.12s-.38-4.2-1.16-6.09c-.77-1.87-1.83-3.51-3.17-4.89-1.34-1.38-2.9-2.45-4.67-3.23-1.78-.77-3.69-1.16-5.74-1.16s-3.97.38-5.74,1.16c-1.78.77-3.34,1.85-4.67,3.23-1.34,1.39-2.4,3.02-3.17,4.89-.78,1.89-1.17,3.91-1.17,6.09m22.9-3.57c0,1.12-.24,2.05-.69,2.78-.46.74-.96,1.34-1.51,1.79-.67.5-1.4.9-2.2,1.2l5.65,8.15h-5.33l-4.71-6.9h-1.89v6.9h-4.7V9.72h8.15c1,0,1.94.18,2.82.54.89.35,1.64.85,2.3,1.47.65.63,1.16,1.35,1.53,2.16.37.82.57,1.69.57,2.61m-7.22,2.63c.79,0,1.46-.26,2.01-.78.54-.53.81-1.1.81-1.72s-.26-1.21-.81-1.74c-.54-.52-1.22-.78-2.01-.78h-3.46v5.02h3.46Z"/>
</svg>